<svg width="46" height="47" viewBox="0 0 46 47" fill="none" xmlns="http://www.w3.org/2000/svg">
<path d="M12.2958 20.1259L13.8352 12.1045L14.338 15.1061C14.4187 15.5862 16.0125 25.1004 16.0125 25.1004C16.2005 26.2219 17.1938 27.1239 18.5428 27.3985L26.6704 29.0523L18.5372 30.7073C17.1915 30.9811 16.2004 31.8828 16.0125 33.0046L13.8355 46.0001L11.6585 33.0051C11.4705 31.8833 10.4794 30.9816 9.1335 30.7077L1 29.0528L9.13393 27.3975C10.4794 27.1236 11.3893 25.5598 11.5771 24.4382" stroke="black" stroke-width="1.7569" stroke-miterlimit="10" stroke-linecap="round" stroke-linejoin="round"/>
<path d="M28.5072 6.79325L29.619 1L29.9821 3.16783C30.0403 3.51455 31.1915 10.386 31.1915 10.386C31.3273 11.1959 32.0446 11.8474 33.019 12.0456L38.8888 13.2402L33.0148 14.4354C32.0428 14.6332 31.3271 15.2844 31.1914 16.0945L29.6191 25.4802L28.0469 16.0949C27.9111 15.2847 27.1953 14.6335 26.2233 14.4357L20.3491 13.2405L26.2237 12.045C27.1954 11.8471 27.8525 10.7177 27.9881 9.90779" stroke="black" stroke-width="1.7569" stroke-miterlimit="10" stroke-linecap="round" stroke-linejoin="round"/>
<path d="M36.6235 28.9424L37.51 24.3228L37.7996 26.0514C37.846 26.3279 38.764 31.8073 38.764 31.8073C38.8722 32.4532 39.4443 32.9727 40.2212 33.1308L44.902 34.0833L40.218 35.0364C39.443 35.1941 38.8722 35.7134 38.764 36.3595L37.5102 43.8438L36.2564 36.3597C36.1481 35.7138 35.5773 35.1944 34.8022 35.0366L30.118 34.0836L34.8024 33.1303C35.5773 32.9725 36.1013 32.0719 36.2095 31.426" stroke="black" stroke-width="1.7569" stroke-miterlimit="10" stroke-linecap="round" stroke-linejoin="round"/>
</svg>
