<svg width="15" height="7" viewBox="0 0 15 7" fill="none" xmlns="http://www.w3.org/2000/svg">
<path d="M11.2074 0C9.76147 0 8.63054 0.903438 7.9021 1.71938C7.17366 0.903438 6.04272 0 4.59679 0C2.56022 0 0.9021 1.57063 0.9021 3.5C0.9021 5.42937 2.56022 7 4.59679 7C6.04272 7 7.17366 6.09656 7.9021 5.28062C8.63054 6.09656 9.76147 7 11.2074 7C13.244 7 14.9021 5.42937 14.9021 3.5C14.9021 1.57063 13.244 0 11.2074 0ZM4.59679 4.9C3.71741 4.9 3.0021 4.27219 3.0021 3.5C3.0021 2.72781 3.71741 2.1 4.59679 2.1C5.43241 2.1 6.20241 2.88969 6.65304 3.5C6.20679 4.10375 5.43022 4.9 4.59679 4.9ZM11.2074 4.9C10.3718 4.9 9.60179 4.11031 9.15116 3.5C9.59741 2.89625 10.374 2.1 11.2074 2.1C12.0868 2.1 12.8021 2.72781 12.8021 3.5C12.8021 4.27219 12.0868 4.9 11.2074 4.9Z" fill="black"/>
</svg>
