<svg width="15" height="15" viewBox="0 0 15 15" fill="none" xmlns="http://www.w3.org/2000/svg">
<path d="M7.0271 3.12505L7.4646 2.25003L8.3396 1.81253L7.4646 1.37502L7.0271 0.5L6.5896 1.37502L5.7146 1.81253L6.5896 2.25003L7.0271 3.12505ZM3.0896 4.87509L3.81858 3.41681L5.2771 2.68754L3.81858 1.95827L3.0896 0.5L2.36062 1.95827L0.9021 2.68754L2.36062 3.41681L3.0896 4.87509ZM12.7146 8.37515L11.9856 9.83342L10.5271 10.5627L11.9856 11.292L12.7146 12.7502L13.4436 11.292L14.9021 10.5627L13.4436 9.83342L12.7146 8.37515ZM14.6456 3.07665L12.3255 0.756489C12.1549 0.585314 11.9309 0.5 11.707 0.5C11.483 0.5 11.2591 0.585314 11.0882 0.756489L1.15858 10.6863C0.816787 11.0281 0.816787 11.5821 1.15858 11.9236L3.4787 14.2438C3.6496 14.4147 3.87354 14.5 4.09722 14.5C4.32116 14.5 4.54511 14.4147 4.71601 14.2438L14.6456 4.31371C14.9874 3.97245 14.9874 3.41818 14.6456 3.07665ZM10.7308 6.06347L9.33874 4.67137L11.7067 2.30336L13.0988 3.69545L10.7308 6.06347Z" fill="black"/>
</svg>
