<svg width="14" height="15" viewBox="0 0 14 15" fill="none" xmlns="http://www.w3.org/2000/svg">
<path d="M13.8096 12.6039L11.0832 9.87799C10.9602 9.75496 10.7934 9.6866 10.6184 9.6866H10.1726C10.9274 8.72146 11.3758 7.50752 11.3758 6.18694C11.3758 3.04545 8.82994 0.5 5.68792 0.5C2.54589 0.5 0 3.04545 0 6.18694C0 9.32843 2.54589 11.8739 5.68792 11.8739C7.00872 11.8739 8.22287 11.4255 9.18817 10.6709V11.1165C9.18817 11.2915 9.25654 11.4583 9.37959 11.5813L12.106 14.3072C12.363 14.5643 12.7787 14.5643 13.033 14.3072L13.8069 13.5335C14.0639 13.2765 14.0639 12.8609 13.8096 12.6039ZM5.68792 9.6866C3.75457 9.6866 2.18766 8.12269 2.18766 6.18694C2.18766 4.25393 3.75184 2.68729 5.68792 2.68729C7.62126 2.68729 9.18817 4.2512 9.18817 6.18694C9.18817 8.11996 7.624 9.6866 5.68792 9.6866Z" fill="black"/>
</svg>
