<svg width="35" height="35" viewBox="0 0 35 35" fill="none" xmlns="http://www.w3.org/2000/svg">
<path d="M35 3.75V31.25C35 33.3211 33.3211 35 31.25 35H3.75C1.67891 35 0 33.3211 0 31.25V3.75C0 1.67891 1.67891 0 3.75 0H31.25C33.3211 0 35 1.67891 35 3.75ZM23.75 20.625C22.6123 20.625 21.5763 21.0595 20.7982 21.7712L15.489 18.5856C15.6703 17.8732 15.6703 17.1267 15.489 16.4143L20.7982 13.2288C21.5763 13.9405 22.6123 14.375 23.75 14.375C26.1662 14.375 28.125 12.4162 28.125 10C28.125 7.58375 26.1662 5.625 23.75 5.625C21.3338 5.625 19.375 7.58375 19.375 10C19.375 10.3748 19.4223 10.7385 19.5109 11.0857L14.2017 14.2712C13.4237 13.5595 12.3877 13.125 11.25 13.125C8.83375 13.125 6.875 15.0838 6.875 17.5C6.875 19.9162 8.83375 21.875 11.25 21.875C12.3877 21.875 13.4237 21.4405 14.2018 20.7288L19.511 23.9144C19.4205 24.2692 19.3749 24.6339 19.3751 25.0001C19.3751 27.4163 21.3338 29.3751 23.7501 29.3751C26.1663 29.3751 28.1251 27.4163 28.1251 25.0001C28.125 22.5838 26.1662 20.625 23.75 20.625Z" fill="#393431"/>
</svg>
