<svg width="35" height="35" viewBox="0 0 35 35" fill="none" xmlns="http://www.w3.org/2000/svg">
<path d="M31.25 0H3.75C2.75544 0 1.80161 0.395088 1.09835 1.09835C0.395088 1.80161 0 2.75544 0 3.75L0 31.25C0 32.2446 0.395088 33.1984 1.09835 33.9017C1.80161 34.6049 2.75544 35 3.75 35H14.4727V23.1008H9.55078V17.5H14.4727V13.2313C14.4727 8.37578 17.3633 5.69375 21.7906 5.69375C23.9109 5.69375 26.1281 6.07188 26.1281 6.07188V10.8375H23.6852C21.2781 10.8375 20.5273 12.3313 20.5273 13.8633V17.5H25.9008L25.0414 23.1008H20.5273V35H31.25C32.2446 35 33.1984 34.6049 33.9017 33.9017C34.6049 33.1984 35 32.2446 35 31.25V3.75C35 2.75544 34.6049 1.80161 33.9017 1.09835C33.1984 0.395088 32.2446 0 31.25 0Z" fill="#393431"/>
</svg>
