<svg width="35" height="35" viewBox="0 0 35 35" fill="none" xmlns="http://www.w3.org/2000/svg">
<path d="M31.25 0H3.75C1.67969 0 0 1.67969 0 3.75V31.25C0 33.3203 1.67969 35 3.75 35H31.25C33.3203 35 35 33.3203 35 31.25V3.75C35 1.67969 33.3203 0 31.25 0ZM27.4297 12.4063C27.4453 12.625 27.4453 12.8516 27.4453 13.0703C27.4453 19.8438 22.2891 27.6484 12.8672 27.6484C9.96094 27.6484 7.26563 26.8047 5 25.3516C5.41406 25.3984 5.8125 25.4141 6.23438 25.4141C8.63281 25.4141 10.8359 24.6016 12.5938 23.2266C10.3438 23.1797 8.45313 21.7031 7.80469 19.6719C8.59375 19.7891 9.30469 19.7891 10.1172 19.5781C7.77344 19.1016 6.01563 17.0391 6.01563 14.5469V14.4844C6.69531 14.8672 7.49219 15.1016 8.32813 15.1328C7.62534 14.6653 7.04921 14.0311 6.65115 13.2868C6.25309 12.5425 6.04549 11.7113 6.04688 10.8672C6.04688 9.91406 6.29688 9.03906 6.74219 8.28125C9.26563 11.3906 13.0547 13.4219 17.3047 13.6406C16.5781 10.1641 19.1797 7.34375 22.3047 7.34375C23.7813 7.34375 25.1094 7.96094 26.0469 8.96094C27.2031 8.74219 28.3125 8.3125 29.2969 7.72656C28.9141 8.91406 28.1094 9.91406 27.0469 10.5469C28.0781 10.4375 29.0781 10.1484 30 9.75C29.3047 10.7734 28.4297 11.6797 27.4297 12.4063Z" fill="#393431"/>
</svg>
